<svg width="128" height="107" viewBox="0 0 128 107" fill="none" xmlns="http://www.w3.org/2000/svg">
<path d="M60.4 20.2899C57.584 20.4772 53.584 21.2797 50.72 22.2026C50.24 22.363 49.632 22.5503 49.36 22.6306C48.496 22.898 44.64 24.6101 43.824 25.0782C43.392 25.3323 42.656 25.7603 42.208 26.0278C38.736 28.0474 34.8 31.458 32.544 34.4273C32.128 34.9489 31.664 35.5374 31.504 35.738C31.344 35.9387 31.2 36.1259 31.2 36.1527C31.2 36.1928 30.816 36.7813 30.352 37.4634C29.52 38.6939 28.48 40.5932 27.904 41.9307C27.76 42.2918 27.616 42.6128 27.584 42.6395C27.568 42.6663 26.672 42.5192 25.584 42.3319C24.496 42.1447 23.056 41.8905 22.4 41.7969C21.744 41.6899 20.944 41.5428 20.64 41.4625C20.336 41.3957 19.6 41.3288 19.024 41.3288C18.192 41.3288 17.856 41.3957 17.424 41.6364C16.944 41.9039 16.88 42.0243 16.832 42.5727C16.784 43.1478 16.832 43.2548 17.312 43.656C17.728 43.9904 18.144 44.1509 19.28 44.3917C20.08 44.5522 21.12 44.7795 21.6 44.8865C22.08 44.9802 23.296 45.2343 24.272 45.4215C25.936 45.7425 26.064 45.796 26 46.0635C24.976 50.0894 24.768 52.8848 25.2 56.5763C25.728 60.9767 27.504 65.6445 30.128 69.4832C31.056 70.8474 33.344 73.6695 34.032 74.3249C34.368 74.6325 34.752 75.007 34.896 75.1675C35.296 75.5955 36.496 76.6254 37.712 77.5884C39.584 79.073 41.424 80.25 43.84 81.5207C44.24 81.7213 44.736 82.0022 44.96 82.1225C45.44 82.4034 48.016 83.4333 49.424 83.9282C51.904 84.7975 55.232 85.5867 57.92 85.9478C60.032 86.2287 66.368 86.349 68.4 86.1484C70.752 85.921 72.032 85.7472 72.88 85.5465C76.128 84.7842 76.752 84.6237 77.04 84.5434C77.216 84.4765 77.792 84.2893 78.32 84.1288C80.768 83.353 81.216 83.1658 84.608 81.5207C89.104 79.3405 94.112 75.2612 97.488 71.0213C99.216 68.8412 101.216 65.2299 102.224 62.4613C103.984 57.566 104.416 51.7212 103.328 47.3609C103.136 46.545 103.008 45.8629 103.056 45.8094C103.104 45.7693 104.4 45.475 105.936 45.1407C110.448 44.191 110.592 44.1509 111.136 43.8433C112.224 43.2147 112.32 42.0243 111.328 41.5294C110.736 41.2485 109.024 41.195 108.144 41.4358C107.84 41.5294 107.008 41.6899 106.304 41.7969C103.84 42.1714 102.48 42.4122 101.952 42.5459C101.488 42.6663 101.376 42.6529 101.2 42.4389C101.072 42.3052 100.96 42.1045 100.96 41.9975C100.96 41.8905 100.832 41.5829 100.656 41.3288C100.496 41.0747 100.304 40.7135 100.24 40.5263C99.968 39.8174 98.368 37.1157 97.68 36.2329C97.28 35.7247 96.96 35.2699 96.96 35.2432C96.96 35.096 94.624 32.4612 93.648 31.5115C92.784 30.6555 89.456 28.0073 88.32 27.2449C87.328 26.5762 86.304 25.9475 85.664 25.6132C85.248 25.3858 84.736 25.1183 84.544 25.0113C83.968 24.6769 82.192 23.8343 81.6 23.6069C81.296 23.4999 80.928 23.3528 80.8 23.2859C78.864 22.3898 74.384 21.1325 71.68 20.7313C68.816 20.3033 67.264 20.1963 64.24 20.2231C62.48 20.2364 60.752 20.2632 60.4 20.2899ZM68.016 22.2026C74.304 22.7242 80.864 24.8909 86.064 28.1812C88.784 29.9065 92.304 32.9828 94.256 35.3903C95.952 37.4634 98.4 41.4625 98.8 42.8268C98.928 43.2414 98.96 43.228 97.52 43.4688C95.52 43.8032 88.432 45.1808 87.52 45.4082C87.12 45.5018 86.08 45.7158 85.2 45.8763C84.32 46.0368 83.28 46.2508 82.88 46.3444C82.48 46.4514 81.84 46.5852 81.44 46.652C81.04 46.7323 79.168 47.1202 77.28 47.5214C75.392 47.936 72.736 48.5112 71.392 48.792L68.944 49.3137L68.112 48.9525C67.648 48.7385 66.88 48.471 66.368 48.3507L65.472 48.1367L65.376 46.5049C65.104 41.7702 64.96 38.627 64.96 37.8245V36.9284L67.568 36.2463C68.992 35.8584 70.768 35.3769 71.52 35.1495C72.272 34.9355 73.248 34.668 73.68 34.561C74.848 34.2534 75.2 34.026 75.2 33.5847C75.2 33.1834 74.944 33.0229 74.448 33.1032C74.288 33.1299 73.328 33.2904 72.32 33.4375C71.312 33.598 70.016 33.812 69.44 33.9057C67.808 34.1999 65.92 34.4808 65.024 34.5878L64.224 34.668L64.24 35.5909C64.256 36.0992 64.208 36.5539 64.128 36.594C64.064 36.6342 64 36.2195 64 35.6712V34.6948L62.848 34.5209C62.208 34.4407 61.248 34.3069 60.72 34.24C60.192 34.1732 59.216 34.026 58.56 33.9057C55.664 33.4242 53.728 33.1567 53.504 33.2235C53.376 33.2637 53.28 33.4777 53.28 33.6917C53.28 34.1197 53.632 34.4005 54.4 34.5744C54.624 34.6145 54.944 34.7082 55.12 34.775C55.296 34.8419 56.48 35.1763 57.76 35.5107C59.04 35.8584 60.368 36.2062 60.72 36.3132C61.072 36.4068 61.776 36.594 62.288 36.7144C63.36 36.9953 63.264 36.5004 63.024 40.7938C62.928 42.4523 62.8 44.7929 62.752 46.01L62.64 48.2035L62 48.364C61.632 48.4443 60.976 48.6717 60.512 48.8723C59.712 49.2067 59.616 49.22 58.672 49.0863C58.128 49.006 57.328 48.8455 56.88 48.7385C56.448 48.6315 53.856 48.0965 51.12 47.5482C48.4 46.9998 45.808 46.4648 45.36 46.3578C44.928 46.2508 43.84 46.0368 42.96 45.8763C42.08 45.7292 41.008 45.5152 40.56 45.4082C39.68 45.2075 32.288 43.7229 30.848 43.442C30.336 43.3484 29.92 43.2414 29.92 43.1879C29.92 43.1478 30.096 42.693 30.304 42.1848C32.336 37.3832 35.952 32.9962 41.008 29.2645C42.464 28.1945 44.976 26.6965 46.48 26.001C46.656 25.9208 47.344 25.6132 48 25.3055C49.424 24.6635 51.584 23.9146 53.36 23.4598C54.064 23.2859 54.864 23.0719 55.12 23.0051C55.888 22.7777 58.848 22.3229 60.24 22.2159C62.16 22.0554 66.16 22.0554 68.016 22.2026ZM64.464 44.4318L64.48 48.0163H64.128H63.792L63.888 42.6663C63.936 39.7238 64.048 37.236 64.112 37.1424C64.288 36.9284 64.432 40.0849 64.464 44.4318ZM19.888 42.0644C20.784 42.2517 24.496 42.8937 26.48 43.2147C26.928 43.2815 27.536 43.4019 27.84 43.4688C28.448 43.6025 30.256 43.9637 32.64 44.405C33.472 44.5522 35.632 44.9802 37.44 45.3547C41.248 46.1304 42.736 46.4247 44.72 46.8125C45.52 46.9597 46.448 47.1469 46.784 47.2272L47.408 47.3743L46.944 47.6953C46.688 47.8692 46.384 48.0029 46.256 48.0163C46.128 48.0163 44.976 47.8023 43.696 47.5482C41.12 47.0265 40.016 46.7992 36.32 46.0769C34.96 45.796 33.488 45.5018 33.04 45.4082C32.176 45.2209 30.16 44.833 28.08 44.4585C27.376 44.3382 26.08 44.0974 25.2 43.9235C24.32 43.7497 22.704 43.4688 21.6 43.2815C18.784 42.8268 18.032 42.6529 17.76 42.4523C17.568 42.2918 17.568 42.2383 17.84 42.0644C18.256 41.8103 18.672 41.8103 19.888 42.0644ZM110.96 42.051C111.216 42.2115 111.232 42.265 111.056 42.4523C110.944 42.5593 110.592 42.693 110.256 42.7465C109.936 42.7867 109.28 42.907 108.8 43.0007C108.32 43.1077 107.088 43.3217 106.08 43.4688C105.072 43.6293 103.808 43.8299 103.28 43.9369C102.752 44.0439 102.032 44.1643 101.68 44.2178C100.96 44.3114 96.784 45.0738 94.72 45.4884C93.968 45.6355 92.464 45.9298 91.36 46.1572C90.256 46.3845 88.752 46.6788 88 46.8259C87.248 46.973 86.24 47.1737 85.76 47.2807C85.28 47.3877 84.336 47.5615 83.68 47.6819C83.024 47.8023 82.4 47.9227 82.288 47.9494C82.048 48.0163 81.248 47.4947 81.36 47.3475C81.408 47.294 82.288 47.08 83.312 46.8794C84.352 46.6788 85.52 46.438 85.92 46.3444C86.32 46.2374 87.152 46.0635 87.76 45.9432C90.704 45.368 92.304 45.047 93.04 44.8865C93.488 44.7795 94.416 44.5923 95.12 44.4719C95.824 44.3382 97.12 44.0974 98 43.9369C98.88 43.763 100 43.5624 100.48 43.4822C100.96 43.4019 101.904 43.2414 102.56 43.121C104.368 42.8 105.696 42.586 107.248 42.3453C108.016 42.2249 108.8 42.0644 109.008 41.9975C109.552 41.8103 110.624 41.837 110.96 42.051ZM29.168 46.3444C29.488 46.4514 29.936 46.545 30.16 46.545C30.64 46.545 30.688 46.8794 30.32 47.9494C30.176 48.3507 30.016 49.4608 29.952 50.4505L29.84 52.2294L29.408 52.2695C28.88 52.323 28.416 52.8714 28.544 53.3128C28.704 53.8344 29.296 54.035 31.312 54.2357C32.352 54.3427 33.808 54.5165 34.56 54.6369C35.312 54.7439 36.752 54.9445 37.76 55.0917C38.768 55.2388 40.464 55.4795 41.52 55.64C42.576 55.8005 43.872 55.9878 44.416 56.068C45.216 56.1884 45.44 56.2687 45.648 56.5763C46.016 57.0979 46.848 57.7399 47.68 58.1545C48.32 58.4755 48.56 58.5157 49.84 58.5157C51.216 58.5157 51.312 58.4889 52.16 58.0342C52.64 57.7667 53.216 57.3654 53.44 57.138C53.76 56.8037 53.968 56.71 54.4 56.71C55.584 56.71 55.68 56.7903 55.68 57.6998C55.696 58.1412 55.76 58.7698 55.824 59.0908L55.968 59.6793L54.576 59.5857C53.824 59.5322 52.592 59.4385 51.84 59.3717C51.088 59.3048 49.296 59.1577 47.84 59.0507C46.384 58.9437 45.056 58.8233 44.88 58.7965C44.704 58.7564 42.88 58.636 40.832 58.5157C36.896 58.2883 36.832 58.2883 36.464 58.8634C36.08 59.4787 37.152 59.8532 42.88 61.1238C43.184 61.1907 43.952 61.3645 44.56 61.4983C45.184 61.6454 45.968 61.8059 46.32 61.846C46.672 61.8995 47.2 62.0065 47.488 62.0734C48.16 62.2607 48.176 62.6352 47.488 62.7957C46.848 62.9695 46.4 63.6517 46.4 64.4943C46.4 64.8554 46.368 65.1363 46.32 65.1363C46.272 65.1363 45.888 64.9357 45.472 64.6949C44.336 64.0663 44.144 63.9593 43.44 63.665C41.12 62.7154 38.48 62.595 36.656 63.3708C36.096 63.5982 35.552 63.7988 35.456 63.7988C35.36 63.7988 35.12 63.5714 34.912 63.2905C34.704 63.023 33.952 62.4345 33.248 62.0065C32.144 61.3244 31.888 61.0837 31.504 60.4015C31.248 59.9468 31.04 59.706 31.04 59.8532C31.04 60.2812 32.192 63.4912 32.64 64.2669C32.72 64.414 32.928 64.8287 33.12 65.2032C33.872 66.661 35.824 69.55 36.544 70.2188C36.736 70.406 37.2 70.8875 37.568 71.3022C38.72 72.5728 41.68 75.0338 43.44 76.1707C47.808 78.9794 51.728 80.4774 57.392 81.5207C62.912 82.5238 69.552 82.1359 75.504 80.4373C77.056 79.9959 77.12 80.0494 74.08 79.5813C70.112 78.9794 67.328 78.6718 64.72 78.5113C63.232 78.4177 61.968 78.324 61.936 78.2973C61.904 78.2705 62.336 78.2304 62.896 78.217C63.456 78.2037 62.064 78.1635 59.792 78.1234C56.272 78.0565 55.632 78.0164 55.472 77.8292C55.168 77.4948 53.6 77.5215 51.44 77.896C50.384 78.0699 49.264 78.2705 48.96 78.324C48.336 78.4177 48.336 78.4177 49.52 77.6152C51.168 76.5184 52.784 75.8363 53.792 75.8363C54.032 75.8363 54.256 75.7828 54.32 75.7159C54.432 75.5554 52.864 74.6727 51.904 74.3784C51.504 74.2447 51.168 74.0975 51.152 74.0307C51.136 73.9638 51.776 73.7765 52.56 73.6027C54.544 73.1613 57.216 73.0677 59.152 73.3485C61.04 73.616 61.44 73.7765 61.44 74.2179C61.456 74.8064 62.016 75.6624 62.544 75.8898C63.2 76.184 65.04 76.1573 65.664 75.8497C66.432 75.4752 66.704 75.0472 66.816 74.0307C66.992 72.3722 66.544 71.69 65.28 71.69C64.768 71.69 64.736 71.6098 64.896 70.9009C64.992 70.5264 65.104 70.4595 66.064 70.2054C66.64 70.0583 67.664 69.8978 68.32 69.8577C70.08 69.7507 73.264 70.1519 74.88 70.6869C75.424 70.8608 75.824 70.9678 78.4 71.5563C82.512 72.4925 85.888 72.4123 89.712 71.3155C91.376 70.834 91.424 70.8073 92.016 70.085C92.352 69.6838 92.592 69.336 92.56 69.3093C92.528 69.2825 92.128 69.4163 91.648 69.5902C89.92 70.2723 89.296 70.4863 89.088 70.4863C88.976 70.4863 88.688 70.5665 88.464 70.6735C86.816 71.3824 82.32 71.583 79.52 71.048C78.688 70.9009 76.992 70.4863 75.76 70.1653C74.528 69.8309 73.104 69.4832 72.608 69.4029C72.096 69.3227 71.728 69.2023 71.76 69.1488C71.808 69.0819 72.4 69.0017 73.088 68.9482C76.352 68.7208 79.632 68.4533 79.888 68.3998C80.032 68.3597 80.128 68.2794 80.08 68.2125C80.032 68.1457 80.16 68.052 80.352 67.9985C80.944 67.8514 81.424 67.303 81.696 66.5005L81.952 65.7382H85.168C88.064 65.7382 88.528 65.7114 89.68 65.4305C91.552 64.9758 94.224 64.2 94.912 63.9192C95.248 63.772 95.616 63.665 95.744 63.665C95.984 63.665 96.8 62.5014 96.8 62.167C96.784 62.0467 96.736 62.06 96.64 62.2072C96.384 62.5817 92.496 63.879 89.76 64.4943C88.56 64.7618 88.064 64.8019 85.616 64.7752C82.272 64.7484 81.824 64.6949 81.696 64.2937C81.648 64.1332 81.472 63.8657 81.312 63.7185L80.992 63.4377L83.264 62.9027C86.24 62.1804 89.84 61.3378 91.44 60.99C92.88 60.669 93.28 60.4417 93.28 59.92C93.28 59.278 92.8 59.064 91.568 59.1577C89.792 59.2914 86.032 59.6392 85.632 59.7194C85.216 59.7997 82.016 60.0805 77.84 60.4015C76.352 60.5085 74.576 60.6557 73.92 60.7092C72.608 60.8295 72.352 60.7627 72.624 60.348C72.72 60.2009 72.88 59.6124 72.976 59.0507C73.152 58.1278 73.184 58.0609 73.424 58.2348C73.568 58.3418 74.128 58.529 74.688 58.6628C75.568 58.8634 75.824 58.8768 76.688 58.7297C78.176 58.4755 79.424 57.8068 80.16 56.8705C80.416 56.5495 81.392 56.3489 87.28 55.4528C88.512 55.2522 90.032 55.0114 90.64 54.9178C91.936 54.6904 94.752 54.2892 97.568 53.928C99.712 53.6338 100.16 53.4465 100.16 52.8179C100.16 52.5504 100.032 52.3765 99.696 52.216C99.248 52.002 99.248 51.9753 99.152 50.3703C99.088 49.4875 98.944 48.3239 98.8 47.8157C98.672 47.294 98.56 46.8125 98.56 46.7189C98.56 46.5718 100.016 46.1438 100.512 46.1438C100.8 46.1438 101.184 47.6552 101.456 49.8888C101.712 52.0154 101.552 55.9209 101.12 57.9807C100.48 61.0302 99.264 64.0395 97.616 66.6744C95.328 70.3392 93.616 72.332 90.24 75.2879C89.44 75.97 87.008 77.7222 85.84 78.4578C84.192 79.4743 82.368 80.3704 80.256 81.2264C76.528 82.7512 74.32 83.353 70 84.0218C67.392 84.423 61.232 84.4632 58.88 84.0887C54.784 83.4333 53.392 83.1123 50.544 82.1894C48.608 81.5474 44.8 79.9023 44.8 79.6883C44.8 79.6348 44.72 79.5813 44.64 79.5813C44.416 79.5813 43.072 78.7788 41.36 77.6285C39.312 76.2643 35.04 72.5193 35.04 72.1047C35.04 72.0244 34.976 71.9575 34.912 71.9575C34.832 71.9575 34.688 71.8238 34.576 71.6499C34.48 71.4894 34.176 71.1149 33.92 70.8207C32.496 69.2424 30.384 65.7248 29.472 63.4644C28.288 60.4952 28 59.492 27.6 56.7502C27.184 53.928 27.344 50.9989 28.08 47.3609C28.208 46.7457 28.32 46.224 28.32 46.1973C28.32 46.0903 28.608 46.1438 29.168 46.3444ZM96.704 47.2405C97.104 48.899 97.36 50.7983 97.296 51.7747C97.28 51.9485 96.528 52.002 91.168 52.1358C87.792 52.2294 83.952 52.3364 82.64 52.3765L80.24 52.4434L79.952 52.0422C79.808 51.8282 79.456 51.4938 79.184 51.3065C78.864 51.0792 78.768 50.9454 78.912 50.9053C79.68 50.6913 80.496 50.504 82.4 50.1028C84.368 49.6748 85.968 49.3137 89.28 48.5513C89.936 48.3908 91.456 48.0564 92.64 47.7889C93.824 47.5214 95.12 47.2272 95.52 47.1335C96.528 46.8928 96.624 46.9062 96.704 47.2405ZM34.96 47.615C35.936 47.8424 38.16 48.364 39.92 48.7787C41.68 49.1799 43.984 49.7283 45.04 49.969C46.08 50.2232 47.04 50.4238 47.168 50.4238C47.28 50.4238 47.52 50.4907 47.712 50.5709C48 50.7047 47.984 50.7314 47.376 50.9855C47.024 51.1327 46.432 51.5205 46.048 51.8415L45.36 52.43L40.4 52.3632C37.68 52.323 34.624 52.2562 33.648 52.216L31.84 52.1358V51.4403C31.84 50.4773 32.368 47.508 32.608 47.1737C32.64 47.1068 32.8 47.0934 32.944 47.1335C33.088 47.1737 34 47.3877 34.96 47.615ZM81.088 48.0163C81.296 48.1768 81.424 48.3774 81.392 48.4577C81.36 48.5513 80.544 48.9525 79.568 49.3538C78.592 49.755 77.648 50.1964 77.488 50.3302C77.28 50.4773 76.912 50.5575 76.352 50.5575C75.888 50.5575 75.072 50.6913 74.48 50.8785C73.424 51.1995 72.16 51.8282 72.16 52.0422C72.16 52.2963 71.904 52.1492 71.616 51.7479C71.456 51.5205 71.008 51.0123 70.624 50.611L69.92 49.9022L71.008 49.6347C71.6 49.5009 73.056 49.1665 74.24 48.899C75.424 48.6315 76.768 48.3239 77.2 48.2169C80.288 47.4545 80.368 47.4545 81.088 48.0163ZM49.472 47.829C50.032 47.9494 51.312 48.2437 52.32 48.4844C53.328 48.7252 54.768 49.0462 55.52 49.2067C56.272 49.3672 57.232 49.5945 57.648 49.7149L58.432 49.9155L57.952 50.3435C57.696 50.5709 57.328 50.9989 57.12 51.2932C56.912 51.5874 56.672 51.8683 56.576 51.9218C56.368 52.0422 55.984 51.895 56.112 51.7212C56.16 51.6409 56.128 51.6275 56.016 51.681C55.92 51.7345 55.2 51.6008 54.432 51.3734C52.32 50.7715 51.184 50.5308 50.832 50.611C50.576 50.6645 50.544 50.6244 50.608 50.3435C50.672 50.0493 50.56 49.969 49.296 49.4608C47.888 48.899 47.04 48.4443 47.04 48.2704C47.04 48.15 48.016 47.6418 48.272 47.6284C48.368 47.615 48.912 47.7087 49.472 47.829ZM64.848 50.7448C65.04 50.7849 65.392 50.825 65.648 50.825C66.208 50.825 67.808 51.2932 68.16 51.5607C68.304 51.6677 68.496 51.7613 68.592 51.7613C68.816 51.7613 68.944 50.8785 68.784 50.3168C68.72 50.0894 68.704 49.8888 68.736 49.8888C68.96 49.8888 70.624 51.8817 71.104 52.7243C72.048 54.356 72.224 55.0649 72.224 57.1113C72.224 59.492 71.824 60.6022 70.416 62.1938L70 62.6619L69.92 62.1938L69.824 61.7257L69.536 62.1938C69.232 62.6619 68.944 62.9027 68.816 62.7957C68.784 62.7555 68.864 62.6218 69.008 62.488C69.152 62.3543 69.328 62.0467 69.376 61.7925L69.488 61.3512L68.624 61.9263C68.144 62.2473 67.296 62.6887 66.72 62.916C65.808 63.2772 65.504 63.3173 64.24 63.3173C62.928 63.3307 62.704 63.2905 61.68 62.8625C60.464 62.3677 59.68 61.7658 58.736 60.6022C58.096 59.8264 57.28 58.0475 57.28 57.459C57.28 57.1247 57.28 57.1247 57.84 57.3253C58.144 57.4189 58.528 57.5125 58.704 57.5125C58.912 57.5125 59.12 57.673 59.28 57.9405C59.792 58.8233 61.152 59.7997 62.4 60.2009C64.448 60.8429 67.024 60.134 68.144 58.5959C68.416 58.2348 68.784 57.9807 69.344 57.7667C70.32 57.4055 70.88 57.0177 70.88 56.71C70.88 56.4292 70.448 55.2254 70.256 54.9847C70.128 54.8242 70.032 54.8242 69.616 54.9713C69.344 55.0649 69.12 55.1585 69.12 55.1987C69.12 55.2388 69.312 55.6534 69.536 56.1349C69.888 56.8438 69.92 57.031 69.744 57.1247C69.584 57.2049 69.488 57.1247 69.424 56.8304C69.232 56.1082 68.768 55.3725 68.48 55.3725C68.336 55.3725 68.08 55.4528 67.92 55.5598C67.632 55.7337 67.632 55.7604 67.904 56.4559C68.064 56.8572 68.304 57.2584 68.448 57.3387C68.672 57.4858 68.656 57.5125 68.288 57.5125C67.936 57.5125 67.872 57.4457 67.776 57.0043C67.728 56.7234 67.568 56.2954 67.424 56.0547C67.216 55.7069 67.088 55.64 66.816 55.6935C66.64 55.747 65.76 55.8139 64.88 55.8674C63.168 55.9477 61.472 55.7738 60.688 55.4394C60.448 55.3324 60.176 55.2388 60.08 55.2388C59.888 55.2388 59.2 56.5362 59.2 56.8973C59.2 57.0845 59.152 57.1247 59.04 57.031C58.896 56.9107 59.072 56.2152 59.424 55.4929C59.52 55.319 59.328 55.1719 58.688 54.8643L57.84 54.4497L57.744 54.8777L57.648 55.3057L57.616 54.8643C57.616 54.6235 57.488 54.2758 57.344 54.1019C56.896 53.5268 57.264 52.5504 58.624 50.8652C58.976 50.397 59.312 50.0225 59.36 50.0225C59.408 50.0225 59.424 50.4505 59.392 50.9722C59.312 51.9753 59.344 52.002 60 51.5607C60.336 51.3333 62.016 50.8785 62.928 50.7715L63.68 50.6779V49.9155C63.68 48.9392 63.808 48.578 64.144 48.5245C64.368 48.4844 64.4 48.6449 64.448 49.5678C64.48 50.5709 64.528 50.6645 64.848 50.7448ZM51.04 51.2397C51.792 51.4269 52.656 52.0689 53.104 52.7644C53.504 53.393 53.568 54.4363 53.216 54.4363C53.056 54.4363 52.944 54.6637 52.88 55.1987C52.752 56.1215 52.336 56.6967 51.456 57.1648C50.912 57.459 50.64 57.5125 49.648 57.5125C48.208 57.5125 47.472 57.245 46.64 56.389C44.496 54.1955 46.304 51.1862 49.824 51.1059C50.16 51.0925 50.72 51.1594 51.04 51.2397ZM77.712 51.6543C78.832 52.1893 79.664 53.3529 79.68 54.3694C79.68 55.5999 78.128 57.3922 76.88 57.5928C75.536 57.7934 73.904 57.3654 73.344 56.6432C73.216 56.4827 73.072 55.9343 73.024 55.426C72.976 54.9178 72.864 54.3694 72.768 54.2089C72.672 54.0484 72.64 53.7675 72.704 53.5669C72.848 53.1122 73.984 52.1625 74.768 51.8415C75.104 51.7078 75.344 51.574 75.296 51.5339C75.248 51.4938 74.88 51.6142 74.48 51.8148C74.064 52.002 73.76 52.0823 73.792 51.9887C73.824 51.895 74.176 51.6944 74.56 51.5205C75.472 51.1193 76.72 51.1728 77.712 51.6543ZM99.456 52.5772C99.712 52.9383 99.12 53.0052 93.2 53.2994C85.136 53.7007 81.248 53.7943 81.104 53.607C80.688 53.072 80.752 53.072 86.32 52.8313C88.176 52.751 90.656 52.6307 91.84 52.5772C95.296 52.4033 99.328 52.4033 99.456 52.5772ZM37.36 52.8313C41.952 53.0185 44.784 53.179 44.896 53.2727C44.96 53.3128 44.96 53.4465 44.912 53.5402C44.832 53.7007 44.176 53.7274 40.848 53.6739C38.672 53.6472 35.776 53.5669 34.416 53.5C33.056 53.4198 31.44 53.3663 30.8 53.3663C29.632 53.3663 28.96 53.1523 29.184 52.858C29.328 52.6574 32.624 52.6574 37.36 52.8313ZM55.488 53.0453C56.032 53.1389 56.08 53.1924 55.856 53.4733C55.664 53.7408 54.176 53.3663 54.112 53.0319C54.064 52.8313 54.128 52.8045 54.512 52.8848C54.752 52.9249 55.2 53.0052 55.488 53.0453ZM42 59.0507C47.584 59.4787 49.68 59.6525 50.544 59.7729C51.04 59.8398 52.096 59.9334 52.88 59.9869C55.088 60.1207 56.32 60.3213 56.32 60.5487C56.32 60.7092 56.112 60.7225 55.088 60.669C54.4 60.6289 52.512 60.5219 50.88 60.4417C49.248 60.3748 47.776 60.2812 47.6 60.241C47.424 60.2143 46.496 60.0939 45.52 60.0003C43.344 59.7729 38.16 59.1443 37.552 59.0373C37.216 58.9838 37.152 58.9169 37.264 58.7965C37.392 58.6628 37.696 58.6494 38.432 58.743C38.992 58.8099 40.592 58.9437 42 59.0507ZM92.384 59.7328C92.448 59.8532 92.464 59.9869 92.416 60.0137C92.352 60.0672 89.216 60.6289 87.28 60.9365C83.728 61.4849 82.336 61.6855 80.88 61.8728C80 61.9798 79.024 62.1269 78.72 62.1938C78.416 62.2607 77.632 62.3543 77.008 62.4078L75.84 62.5014V62.0868C75.84 61.6989 75.872 61.6855 76.608 61.6187C77.024 61.5785 77.968 61.4582 78.72 61.3378C79.472 61.2308 80.768 61.0435 81.6 60.9365C82.432 60.8162 83.728 60.6423 84.48 60.5353C85.232 60.4283 86.672 60.241 87.68 60.1207C88.688 60.0003 89.952 59.813 90.48 59.7194C91.808 59.4787 92.272 59.4787 92.384 59.7328ZM58.224 61.2575C58.464 61.4047 59.04 62.3008 59.04 62.5415C59.024 62.9428 58.192 62.0333 57.52 60.9098C56.8 59.6927 56.8 59.3717 57.536 60.3882C57.84 60.8295 58.16 61.2174 58.224 61.2575ZM54.176 61.3913H56.608L56.928 61.9263L57.232 62.4613H56.576C55.408 62.4479 51.136 62.2072 50.608 62.1135C50.144 62.0333 50.08 61.9664 50.08 61.6187V61.2174L50.928 61.311C51.376 61.3512 52.848 61.3913 54.176 61.3913ZM75.328 61.8193C75.376 62.0199 75.264 62.06 74.528 62.06C73.344 62.06 72 61.9129 72 61.7792C72 61.632 72.816 61.5652 74.16 61.5785C75.088 61.5919 75.28 61.632 75.328 61.8193ZM48.8 62.4078C48.8 62.7288 48.736 62.9963 48.64 62.9963C48.56 62.9963 48.48 62.6887 48.48 62.3142C48.48 61.8995 48.544 61.6722 48.64 61.7257C48.736 61.7658 48.8 62.0734 48.8 62.4078ZM79.68 64.1198C79.68 64.8955 79.616 65.5509 79.536 65.591C79.456 65.6312 79.456 65.9388 79.536 66.2865C79.696 66.9954 79.68 67.0355 79.376 66.875C79.136 66.7547 79.104 66.5139 79.168 64.2268C79.2 62.9963 79.248 62.7288 79.44 62.7288C79.632 62.7288 79.68 62.9695 79.68 64.1198ZM33.776 63.4109C34.496 63.879 34.624 64.1867 33.968 63.8389C33.344 63.5045 32.96 63.2237 32.96 63.1033C32.96 62.916 33.136 62.9829 33.776 63.4109ZM48.8 64.6682C48.8 65.805 48.768 65.9388 48.464 66.0725C48.032 66.2732 47.36 65.9254 47.36 65.5108V65.2165L47.68 65.5108C47.872 65.6713 48.08 65.805 48.16 65.805C48.256 65.805 48.32 65.2834 48.32 64.6013C48.32 63.6249 48.368 63.3975 48.56 63.3975C48.752 63.3975 48.8 63.6249 48.8 64.6682ZM42.064 64.1867C42.704 64.4007 43.616 64.8019 44.064 65.056C45.648 65.9655 46.208 66.2865 46.848 66.7145C47.872 67.3967 48.544 67.5839 49.248 67.3967C50.656 67.0222 51.2 66.2865 51.2 64.7885C51.2 63.9994 51.232 63.9192 51.488 63.9994C52.592 64.3873 57.28 65.1363 58.528 65.1363C59.344 65.1363 59.648 65.1898 59.904 65.3904C60.24 65.6579 62.432 66.6075 62.688 66.6075C62.848 66.6075 63.12 69.2692 62.976 69.3895C62.896 69.4564 61.968 69.1755 61.264 68.8813C61.136 68.8278 60.56 68.6272 59.984 68.4399C56.992 67.4368 56.352 67.4234 54.048 68.2928C51.168 69.3762 49.2 69.8577 47.008 70.0182L45.776 70.1118L44.848 69.3494C43.6 68.3195 43.248 68.1724 42.304 68.3463C41.888 68.4265 41.552 68.4667 41.536 68.4533C41.312 67.9852 41.104 67.8782 40.496 67.9049C40.128 67.9183 39.84 67.8782 39.84 67.8247C39.84 67.7578 39.584 67.3967 39.28 67.0222C38.976 66.6477 38.72 66.2598 38.72 66.1528C38.72 65.8585 38.208 65.6713 37.872 65.8318C37.456 66.019 37.136 65.8719 36.928 65.4038C36.816 65.0962 36.688 65.0159 36.48 65.0694C36.256 65.1363 35.68 64.8554 35.68 64.6682C35.68 64.6013 37.504 63.8924 38 63.7854C38.944 63.5714 40.8 63.7453 42.064 64.1867ZM81.28 65.0159C81.28 65.4573 81.216 65.805 81.12 65.805C81.04 65.805 80.96 65.5509 80.96 65.2299C80.96 64.9223 80.912 64.5344 80.864 64.3605C80.784 64.1198 80.816 64.0797 81.024 64.1465C81.216 64.2134 81.28 64.414 81.28 65.0159ZM77.232 65.4305C77.248 66.3935 77.312 66.5808 77.728 67.0757L78.208 67.6374L76.816 67.7177C76.064 67.7578 74.032 67.8648 72.32 67.945C69.104 68.1055 68.416 68.2125 66.112 68.9749C65.552 69.1488 65.056 69.2692 65.008 69.2424C64.976 69.2023 65.024 68.6004 65.12 67.8915C65.296 66.7547 65.36 66.6075 65.632 66.6075C65.984 66.6075 67.84 65.912 68.464 65.5509C68.784 65.3637 69.296 65.2834 70.64 65.2299C72.16 65.163 74.272 64.8822 76.32 64.4675C76.624 64.414 76.96 64.3605 77.04 64.3472C77.136 64.3472 77.216 64.7885 77.232 65.4305ZM39.2 67.8247C39.2 67.9049 39.136 67.9183 39.04 67.8782C38.96 67.838 38.88 67.731 38.88 67.6642C38.88 67.5839 38.96 67.5705 39.04 67.6107C39.136 67.6508 39.2 67.7578 39.2 67.8247ZM58.928 69.015L60.32 69.5099L59.344 69.6035C58.8 69.6437 58.304 69.6437 58.224 69.6035C58.144 69.5634 58.08 69.5902 58.08 69.6704C58.08 69.7507 58.416 69.8978 58.848 69.9914L59.6 70.1787L58.88 70.3392C58.48 70.4328 57.376 70.7404 56.4 71.048C53.28 72.0244 52.096 72.3588 51.952 72.3187C51.824 72.2919 52.08 72.1582 54.096 71.262C54.576 71.0347 55.152 70.7404 55.376 70.5933C55.712 70.3659 55.712 70.3392 55.44 70.406C54.32 70.6468 54.24 70.5933 55.152 70.2322C56.128 69.8309 56.528 69.55 56.128 69.55C56 69.55 55.84 69.6035 55.76 69.6704C55.44 69.9112 51.552 70.8875 50.4 71.0079C48.192 71.2487 45.488 71.3423 45.376 71.1818C45.312 71.0882 45.552 71.0079 46.032 70.9544C47.136 70.8207 50.336 70.2723 51.28 70.0449C52.112 69.8443 54.24 69.122 54.8 68.8545C55.408 68.5603 56.4 68.373 56.96 68.4533C57.264 68.48 58.144 68.7342 58.928 69.015ZM44.272 69.8175C44.656 70.2188 44.464 70.2589 44 69.8844C43.744 69.6704 43.52 69.443 43.52 69.3762C43.52 69.2424 43.968 69.4965 44.272 69.8175ZM63.2 70.941C63.2 71.1149 63.248 71.3557 63.296 71.476C63.376 71.6499 63.264 71.69 62.672 71.69C61.872 71.69 61.648 71.8372 61.504 72.4658C61.376 72.9607 61.28 72.974 59.792 72.653L58.704 72.4123L60.832 71.5162C62 71.0347 63.008 70.6334 63.088 70.62C63.152 70.62 63.2 70.7672 63.2 70.941ZM64.96 73.3619C64.96 74.1377 64.896 74.7663 64.816 74.7663C64.736 74.7663 64.672 74.3918 64.688 73.9237L64.72 73.0944L64.112 73.1345L63.504 73.188L63.616 72.6664C63.76 71.9709 63.776 71.9575 64.416 71.9575H64.96V73.3619ZM63.088 73.3619C63.136 73.9237 63.12 74.1377 63.04 73.8969C62.912 73.4957 62.832 72.2652 62.944 72.3722C62.976 72.3989 63.04 72.8403 63.088 73.3619ZM64.448 73.5893C64.4 73.6829 64.24 73.7632 64.08 73.7632C63.92 73.7632 63.76 73.6829 63.728 73.5893C63.68 73.4957 63.808 73.4288 64.08 73.4288C64.352 73.4288 64.48 73.4957 64.448 73.5893Z" fill="black"/>
<path d="M46.224 36.5272C45.344 36.701 44.624 37.1023 43.808 37.8914C42.72 38.948 41.648 40.4594 42.32 39.9913C42.448 39.8977 42.56 39.7505 42.56 39.6703C42.56 39.5767 42.816 39.3092 43.136 39.055C43.456 38.8009 44 38.3328 44.352 38.0252C45.296 37.1959 46.24 36.8615 47.6 36.8615C48.544 36.8615 48.848 36.915 49.472 37.2227C50.192 37.5704 50.88 38.199 51.088 38.6672C51.152 38.8143 51.312 38.8678 51.664 38.8143C51.936 38.7875 52.384 38.8277 52.656 38.9079C53.168 39.055 53.168 39.055 52.88 38.7875C52.72 38.6404 52.32 38.4799 52 38.4398C51.52 38.3729 51.344 38.2659 51.152 37.9182C50.48 36.7412 48.288 36.1125 46.224 36.5272Z" fill="black"/>
<path d="M68.768 71.6498C68.88 71.69 69.024 71.6766 69.072 71.6365C69.136 71.5963 69.04 71.5562 68.864 71.5696C68.688 71.5696 68.64 71.6097 68.768 71.6498Z" fill="black"/>
<path d="M71.248 71.65C71.392 71.6765 71.648 71.6765 71.808 71.65C71.952 71.6103 71.824 71.5838 71.52 71.5838C71.216 71.5838 71.088 71.6103 71.248 71.65Z" fill="black"/>
<path d="M72.608 71.7838C72.704 71.8103 72.896 71.8103 73.008 71.7838C73.104 71.7441 73.024 71.7176 72.8 71.7176C72.576 71.7176 72.496 71.7441 72.608 71.7838Z" fill="black"/>
<path d="M71.808 72.3185C71.92 72.3587 72.064 72.3453 72.112 72.3052C72.176 72.265 72.08 72.2249 71.904 72.2383C71.728 72.2383 71.68 72.2784 71.808 72.3185Z" fill="black"/>
<path d="M75.488 72.3185C75.6 72.3587 75.744 72.3453 75.792 72.3052C75.856 72.265 75.76 72.2249 75.584 72.2383C75.408 72.2383 75.36 72.2784 75.488 72.3185Z" fill="black"/>
<path d="M73.888 72.5861C74 72.6262 74.144 72.6129 74.192 72.5727C74.256 72.5326 74.16 72.4925 73.984 72.5059C73.808 72.5059 73.76 72.546 73.888 72.5861Z" fill="black"/>
<path d="M77.568 72.7199C77.68 72.76 77.824 72.7467 77.872 72.7065C77.936 72.6664 77.84 72.6263 77.664 72.6397C77.488 72.6397 77.44 72.6798 77.568 72.7199Z" fill="black"/>
<path d="M75.68 73.0276C75.808 73.0945 76 73.1614 76.08 73.1614C76.176 73.1614 76.128 73.0945 76 73.0276C75.872 72.9608 75.696 72.8939 75.6 72.8939C75.52 72.8939 75.552 72.9608 75.68 73.0276Z" fill="black"/>
<path d="M79.168 72.9875C79.28 73.0276 79.424 73.0142 79.472 72.9741C79.536 72.934 79.44 72.8939 79.264 72.9072C79.088 72.9072 79.04 72.9474 79.168 72.9875Z" fill="black"/>
<path d="M76.56 73.1614C76.304 73.255 76.288 73.2817 76.512 73.2817C76.656 73.2951 76.832 73.2282 76.88 73.1614C76.992 73.0142 76.992 73.0142 76.56 73.1614Z" fill="black"/>
<path d="M79.808 73.1212C79.904 73.1477 80.096 73.1477 80.208 73.1212C80.304 73.0815 80.224 73.055 80 73.055C79.776 73.055 79.696 73.0815 79.808 73.1212Z" fill="black"/>
<path d="M77.248 73.3886C77.36 73.4287 77.504 73.4154 77.552 73.3752C77.616 73.3351 77.52 73.295 77.344 73.3084C77.168 73.3084 77.12 73.3485 77.248 73.3886Z" fill="black"/>
<path d="M77.92 73.5625C78.048 73.6294 78.304 73.6963 78.464 73.6963C78.88 73.6963 78.752 73.616 78.16 73.509C77.808 73.4422 77.744 73.4555 77.92 73.5625Z" fill="black"/>
<path d="M79.968 73.6562C80.08 73.6963 80.224 73.6829 80.272 73.6428C80.336 73.6027 80.24 73.5626 80.064 73.5759C79.888 73.5759 79.84 73.6161 79.968 73.6562Z" fill="black"/>
<path d="M74.88 74.4988C75.424 74.6459 75.84 74.6459 75.44 74.4988C75.264 74.4319 74.976 74.3918 74.8 74.3918C74.544 74.3918 74.56 74.4185 74.88 74.4988Z" fill="black"/>
<path d="M55.568 76.8529C55.616 76.9064 57.008 76.9331 58.656 76.9198C62.304 76.893 62.464 77.0936 58.88 77.1873C58.272 77.2006 58.224 77.214 58.56 77.3076C58.864 77.3879 58.704 77.428 57.92 77.4548L56.88 77.4815L58 77.5751C59.328 77.6688 66.512 77.5083 68.928 77.3076C69.872 77.2408 70.784 77.1605 70.96 77.1605C71.904 77.0936 68.928 76.893 66.112 76.8261C63.808 76.7593 62.8 76.786 62.672 76.893C62.448 77.0803 62.192 77.0936 62.32 76.9064C62.384 76.8128 61.216 76.7726 58.944 76.7726C57.024 76.7726 55.504 76.8128 55.568 76.8529ZM64.592 76.9866C64.544 77.0268 64.4 77.0401 64.288 77C64.16 76.9599 64.208 76.9198 64.384 76.9198C64.56 76.9064 64.656 76.9465 64.592 76.9866Z" fill="black"/>
<path d="M71.2 59.4654C71.2 59.5322 70.912 59.9469 70.56 60.3882C69.904 61.2309 69.824 61.3914 70.08 61.3914C70.448 61.3914 71.52 59.6125 71.28 59.3985C71.232 59.3717 71.2 59.3985 71.2 59.4654Z" fill="black"/>
<path d="M48.24 52.5906C47.68 52.8447 47.072 53.4734 46.96 53.9014C46.672 55.0115 47.712 56.4694 48.912 56.6566C49.712 56.777 50.784 56.6432 51.232 56.3624C51.984 55.8942 52.208 55.5064 52.208 54.7039C52.208 53.2594 51.232 52.4301 49.536 52.4301C48.992 52.4301 48.416 52.5104 48.24 52.5906ZM50.224 54.6236C50.368 54.7707 50.352 54.8644 50.16 55.0249C49.824 55.2924 49.28 55.3057 49.28 55.0382C49.28 54.8777 49.344 54.851 49.584 54.9714C49.936 55.1319 50.16 54.9446 50.016 54.637C49.904 54.3829 49.984 54.3829 50.224 54.6236Z" fill="black"/>
<path d="M75.104 52.6306C74.512 52.8446 73.808 53.5134 73.664 53.9815C73.472 54.6235 73.696 55.5063 74.192 56.0145C75.232 57.0979 77.104 57.0444 78.208 55.8941C78.752 55.3324 78.736 54.2089 78.176 53.5C77.456 52.5771 76.208 52.2294 75.104 52.6306ZM76.8 54.9044C76.8 55.0114 76.736 55.105 76.64 55.105C76.56 55.105 76.48 55.0114 76.48 54.9044C76.48 54.7974 76.56 54.7038 76.64 54.7038C76.736 54.7038 76.8 54.7974 76.8 54.9044ZM76.16 55.2388C76.352 55.3458 76.336 55.3725 76.048 55.3725C75.84 55.3725 75.68 55.3056 75.68 55.2388C75.68 55.0649 75.856 55.0649 76.16 55.2388Z" fill="black"/>
</svg>
